<svg width="121" height="22" viewBox="0 0 121 22" fill="none" xmlns="http://www.w3.org/2000/svg">
<path d="M10.8933 21.511C9.33378 21.511 7.88851 21.2345 6.55415 20.6815C5.21979 20.1253 4.06357 19.3715 3.09557 18.407C2.12422 17.4458 1.36797 16.3102 0.82347 15.0034C0.27561 13.6966 0 12.301 0 10.8164V10.7572C0 9.27263 0.27561 7.87696 0.82347 6.58333C1.36797 5.28642 2.12758 4.1475 3.09557 3.16658C4.06357 2.18238 5.22987 1.41542 6.5844 0.84925C7.94228 0.279792 9.43797 0 11.0782 0C12.0697 0 12.9739 0.0757084 13.7906 0.237C14.6141 0.395 15.3569 0.61225 16.0224 0.892042C16.6879 1.17183 17.3063 1.50429 17.8743 1.90258C18.439 2.29758 18.9667 2.73208 19.4507 3.20938L16.4795 6.56688C15.6493 5.83283 14.8023 5.25679 13.9452 4.84204C13.0814 4.42729 12.1168 4.21992 11.0446 4.21992C10.1539 4.21992 9.33042 4.38779 8.57417 4.72683C7.81792 5.06588 7.16251 5.53 6.61801 6.1225C6.07015 6.715 5.64665 7.40954 5.34415 8.18967C5.03829 8.97309 4.88368 9.80917 4.88368 10.6979V10.7572C4.88368 11.6492 5.03829 12.4919 5.34415 13.2819C5.64665 14.0752 6.06343 14.7697 6.6012 15.3622C7.13562 15.958 7.78431 16.4287 8.54392 16.7743C9.30353 17.12 10.1371 17.2944 11.0479 17.2944C12.2613 17.2944 13.2864 17.0772 14.1301 16.6427C14.9703 16.2049 15.8039 15.6124 16.6307 14.8586L19.6053 17.8013C19.0574 18.3774 18.4928 18.8909 17.9079 19.3451C17.3198 19.8027 16.6778 20.1944 15.9787 20.5203C15.2829 20.8461 14.5166 21.0963 13.6898 21.2609C12.8562 21.4288 11.9285 21.511 10.8933 21.511Z" fill="#231F20"/>
<path d="M33.6475 21.511C32.0106 21.511 30.5049 21.228 29.1268 20.6651C27.7521 20.0989 26.5657 19.3353 25.564 18.3774C24.5624 17.4162 23.7827 16.2872 23.2281 14.9903C22.6735 13.6933 22.3945 12.301 22.3945 10.8164V10.7572C22.3945 9.27263 22.6769 7.87696 23.2415 6.58333C23.8096 5.28642 24.5927 4.1475 25.5943 3.16658C26.5925 2.18238 27.7891 1.41542 29.1739 0.84925C30.5586 0.279792 32.0711 0 33.708 0C35.3482 0 36.854 0.279792 38.232 0.845958C39.6067 1.41213 40.7932 2.1725 41.7948 3.13367C42.793 4.09483 43.5728 5.22058 44.1308 6.5175C44.6887 7.81442 44.9677 9.20679 44.9677 10.6913V10.7506C44.9677 12.2384 44.6853 13.6275 44.1173 14.9244C43.5493 16.2213 42.7662 17.3635 41.7679 18.3412C40.7663 19.3221 39.5698 20.0956 38.185 20.6618C36.8002 21.228 35.2877 21.511 33.6475 21.511ZM33.708 17.2911C34.6424 17.2911 35.4995 17.1233 36.286 16.7842C37.0758 16.4452 37.748 15.981 38.306 15.3885C38.8639 14.796 39.2975 14.1081 39.6101 13.3247C39.926 12.5413 40.0773 11.7052 40.0773 10.8131V10.7539C40.0773 9.86183 39.9227 9.02246 39.6101 8.22588C39.2975 7.43588 38.8538 6.74133 38.2757 6.14883C37.6976 5.55304 37.0153 5.08233 36.2288 4.73671C35.439 4.39108 34.5785 4.21663 33.6509 4.21663C32.6963 4.21663 31.8325 4.3845 31.0561 4.72354C30.2763 5.05929 29.6108 5.52671 29.0562 6.11921C28.4983 6.71171 28.0647 7.40625 27.7521 8.18638C27.4362 8.96979 27.2816 9.80588 27.2816 10.6946V10.7539C27.2816 11.6459 27.4362 12.4886 27.7521 13.2786C28.0647 14.0719 28.5084 14.7664 29.0865 15.3589C29.6612 15.9547 30.3368 16.4254 31.1199 16.771C31.8964 17.1167 32.7602 17.2911 33.708 17.2911Z" fill="#231F20"/>
<path d="M56.5228 21.4511C54.9061 21.4511 53.3163 21.1812 51.7602 20.6348C50.2006 20.0884 48.7856 19.2523 47.5117 18.1266L50.2712 14.8876C51.2392 15.6611 52.2374 16.2733 53.2592 16.7276C54.281 17.1851 55.3969 17.4123 56.6136 17.4123C57.5816 17.4123 58.3345 17.2411 58.8722 16.8922C59.4067 16.5466 59.6756 16.066 59.6756 15.4504V15.3912C59.6756 15.0916 59.6184 14.8316 59.5109 14.6045C59.3966 14.3773 59.1848 14.1667 58.8756 13.9659C58.5597 13.7684 58.1294 13.5709 57.5681 13.3701C57.0136 13.1726 56.2909 12.9652 55.4002 12.748C54.3314 12.4912 53.3567 12.2048 52.4862 11.8856C51.6156 11.5696 50.8762 11.1811 50.2712 10.7137C49.6628 10.2496 49.1923 9.66697 48.8629 8.97572C48.5268 8.28447 48.3621 7.42205 48.3621 6.39176V6.33251C48.3621 5.38122 48.5436 4.52539 48.9032 3.76172C49.2662 3.00134 49.7737 2.33972 50.4258 1.78343C51.0778 1.23043 51.861 0.802511 52.7651 0.509552C53.6693 0.21001 54.6709 0.0585938 55.7632 0.0585938C57.3228 0.0585938 58.7546 0.285719 60.0587 0.743261C61.3628 1.2008 62.5627 1.85255 63.6551 2.70839L61.2284 6.15476C60.2805 5.51947 59.3462 5.01914 58.4387 4.65376C57.5278 4.28839 56.6203 4.10734 55.7094 4.10734C54.7986 4.10734 54.1163 4.27851 53.6625 4.62743C53.2054 4.97305 52.9769 5.40426 52.9769 5.91776V5.97701C52.9769 6.31605 53.0441 6.60901 53.1752 6.85259C53.3063 7.09947 53.5415 7.3233 53.8877 7.5208C54.2272 7.7216 54.7011 7.90922 55.296 8.08697C55.8943 8.26472 56.6472 8.47539 57.5581 8.71239C58.6302 8.98889 59.5848 9.2983 60.4217 9.64722C61.262 9.99285 61.9712 10.4076 62.5459 10.8948C63.124 11.3819 63.5576 11.9481 63.85 12.6031C64.1425 13.2549 64.2903 14.0383 64.2903 14.9534V15.0126C64.2903 16.0396 64.0988 16.958 63.7156 17.7612C63.3358 18.5643 62.8014 19.2358 62.1191 19.7823C61.4334 20.3254 60.62 20.7401 59.6722 21.0265C58.7277 21.3063 57.6757 21.4511 56.5228 21.4511Z" fill="#231F20"/>
<path d="M78.7036 21.5117C77.0667 21.5117 75.561 21.2286 74.1829 20.6657C72.8082 20.0995 71.6218 19.3359 70.6168 18.378C69.6152 17.4168 68.8354 16.2878 68.2808 14.9909C67.7229 13.694 67.4473 12.3016 67.4473 10.817V10.7578C67.4473 9.27324 67.7296 7.87757 68.2943 6.58395C68.8623 5.28703 69.6454 4.14812 70.6437 3.1672C71.6453 2.18299 72.8385 1.41603 74.2232 0.849865C75.608 0.283698 77.1205 0.00390625 78.7607 0.00390625C80.4009 0.00390625 81.9067 0.283698 83.2814 0.849865C84.6561 1.41603 85.8459 2.17641 86.8442 3.13757C87.8458 4.09874 88.6256 5.22449 89.1801 6.52141C89.7381 7.81832 90.0137 9.2107 90.0137 10.6952V10.7545C90.0137 12.2423 89.7314 13.6314 89.1667 14.9283C88.5987 16.2252 87.8155 17.3675 86.8173 18.3451C85.8157 19.326 84.6191 20.0995 83.2344 20.6657C81.8563 21.2286 80.3438 21.5117 78.7036 21.5117ZM78.7641 17.2917C79.6951 17.2917 80.5556 17.1239 81.3454 16.7848C82.1353 16.4458 82.8041 15.9817 83.3654 15.3892C83.92 14.7934 84.357 14.1087 84.6695 13.3253C84.9855 12.5419 85.1367 11.7058 85.1367 10.8137V10.7545C85.1367 9.86245 84.9821 9.02308 84.6695 8.22649C84.357 7.43649 83.9133 6.74195 83.3352 6.14945C82.7571 5.55366 82.0748 5.08295 81.2849 4.73732C80.4984 4.3917 79.638 4.21724 78.7069 4.21724C77.7591 4.21724 76.892 4.38512 76.1155 4.72416C75.3358 5.05991 74.6669 5.52732 74.1123 6.11982C73.5577 6.71232 73.1208 7.40687 72.8082 8.18699C72.4956 8.97041 72.3377 9.80649 72.3377 10.6952V10.7545C72.3377 11.6465 72.4956 12.4892 72.8082 13.2792C73.1174 14.0725 73.5645 14.767 74.1426 15.3595C74.7173 15.9553 75.3963 16.426 76.176 16.7717C76.9491 17.1173 77.8129 17.2917 78.7641 17.2917Z" fill="#231F20"/>
<path d="M94.1777 0.355469H103.888C106.58 0.355469 108.641 1.05989 110.076 2.46543C111.292 3.65372 111.897 5.23701 111.897 7.21859V7.27784C111.897 8.96318 111.477 10.3358 110.637 11.3957C109.797 12.4556 108.698 13.2325 107.347 13.7295L112.533 21.1555H107.071L102.52 14.5031H98.8497V21.1555H94.1777V0.355469ZM103.585 10.4576C104.735 10.4576 105.622 10.191 106.237 9.65772C106.856 9.12447 107.165 8.41676 107.165 7.52801V7.47205C107.165 6.48784 106.842 5.74722 106.194 5.25676C105.548 4.76301 104.644 4.51614 103.491 4.51614H98.853V10.4576H103.585Z" fill="#231F20"/>
<path d="M120.999 0.355469H116.324V21.1555H120.999V0.355469Z" fill="#231F20"/>
</svg>
